<svg viewBox="0 0 512 512" xmlns="http://www.w3.org/2000/svg"><defs><style>
@import url('https://fonts.googleapis.com/css2?family=Poppins:wght@500;700&amp;display=swap');
</style></defs><rect x="0" y="0" width="512" height="512" rx="104" fill="#1C2B45"/><clipPath id="clip18417"><rect x="0" y="0" width="512" height="512" rx="104"/></clipPath><g clip-path="url(#clip18417)"><path d="M 0.0 203.0 C 64.0 203.0, 64.0 228.3, 128.0 228.3 C 192.0 228.3, 192.0 183.8, 256.0 183.8 C 320.0 183.8, 320.0 179.2, 384.0 179.2 C 448.0 179.2, 448.0 225.9, 512.0 225.9 L 512.0 512 L 0.0 512 Z" fill="#E0641F"/><path d="M 0.0 299.0 C 64.0 299.0, 64.0 291.1, 128.0 291.1 C 192.0 291.1, 192.0 250.9, 256.0 250.9 C 320.0 250.9, 320.0 277.6, 384.0 277.6 C 448.0 277.6, 448.0 305.3, 512.0 305.3 L 512.0 512 L 0.0 512 Z" fill="#BC3908"/><path d="M 0.0 360.9 C 64.0 360.9, 64.0 373.7, 128.0 373.7 C 192.0 373.7, 192.0 333.0, 256.0 333.0 C 320.0 333.0, 320.0 339.2, 384.0 339.2 C 448.0 339.2, 448.0 377.0, 512.0 377.0 L 512.0 512 L 0.0 512 Z" fill="#FFC26E"/><path d="M 0.0 203.0 C 64.0 203.0, 64.0 228.3, 128.0 228.3 C 192.0 228.3, 192.0 183.8, 256.0 183.8 C 320.0 183.8, 320.0 179.2, 384.0 179.2 C 448.0 179.2, 448.0 225.9, 512.0 225.9 " fill="none" stroke="#FFC26E" stroke-width="13" stroke-linecap="round"/><circle cx="128.0" cy="228.3" r="17" fill="#FFC26E"/><circle cx="128.0" cy="228.3" r="6.5" fill="#1C2B45"/><circle cx="384.0" cy="179.2" r="17" fill="#FFC26E"/><circle cx="384.0" cy="179.2" r="6.5" fill="#1C2B45"/></g></svg>