<svg viewBox="0 0 770 230" xmlns="http://www.w3.org/2000/svg">
<defs><style>@import url('https://fonts.googleapis.com/css2?family=Poppins:wght@600;700&amp;display=swap');</style></defs>
<rect width="770" height="230" fill="#FBF7F1"/>
<g transform="translate(40,40) scale(0.29296875)"><clipPath id="cl"><rect width="512" height="512" rx="76"/></clipPath><g clip-path="url(#cl)"><rect width="512" height="512" fill="#FFC26E"/><path d="M -12.0 196.0 C 55.0 196.0, 55.0 218.2, 122.0 218.2 C 189.0 218.2, 189.0 219.2, 256.0 219.2 C 323.0 219.2, 323.0 198.0, 390.0 198.0 C 457.0 198.0, 457.0 175.0, 524.0 175.0 L 524.0 540 L -12.0 540 Z" fill="#E0641F"/><path d="M -12.0 351.3 C 55.0 351.3, 55.0 365.9, 122.0 365.9 C 189.0 365.9, 189.0 355.7, 256.0 355.7 C 323.0 355.7, 323.0 330.6, 390.0 330.6 C 457.0 330.6, 457.0 314.4, 524.0 314.4 L 524.0 540 L -12.0 540 Z" fill="#BC3908"/><path d="M -12.0 196.0 C 55.0 196.0, 55.0 218.2, 122.0 218.2 C 189.0 218.2, 189.0 219.2, 256.0 219.2 C 323.0 219.2, 323.0 198.0, 390.0 198.0 C 457.0 198.0, 457.0 175.0, 524.0 175.0 " fill="none" stroke="#1C2B45" stroke-width="38" stroke-linecap="round"/></g></g>
<text x="228" y="135" font-family="'Poppins','Segoe UI',system-ui,sans-serif" font-size="92" font-weight="700" fill="#1C2B45" letter-spacing="-2">strata</text>
<text x="232" y="168" font-family="'Poppins','Segoe UI',system-ui,sans-serif" font-size="20" font-weight="600" fill="#B8884E" letter-spacing="6">BUSINESS INTELLIGENCE</text>
</svg>